<svg id="Camada_1" data-name="Camada 1" xmlns="http://www.w3.org/2000/svg" viewBox="0 0 208.9 260.33"><defs><style>.cls-1{fill:#000050;}.cls-2{fill:#00c0c0;}.cls-3{fill:#fff;}.cls-4{fill:#ff0040;}</style></defs><path class="cls-1" d="M935.14,374.55l-27.08-26.7a7.84,7.84,0,0,0-3-1.78,8.89,8.89,0,0,0-3.82-.29L891.4,347l-9.88,1.25-9.87,1.25-9.89,1.25a11.12,11.12,0,0,0-4,1.28,12.73,12.73,0,0,0-3.28,2.57,12,12,0,0,0-2.38,3.46,11.05,11.05,0,0,0-1.17,4.09L846.72,413l-4.25,50.74-4.26,50.79L834,565.27a8.21,8.21,0,0,0,.5,3.82,6.68,6.68,0,0,0,1.83,2.95s25.47,25.13,27.07,26.75a8,8,0,0,0,6.75,2.09l19.79-2.5,19.76-2.5a12.27,12.27,0,0,0,7.24-3.85,12.91,12.91,0,0,0,3.5-7.57l8.53-101.53,8.5-101.57A8.32,8.32,0,0,0,935.14,374.55Z" transform="translate(-833.91 -345.69)"/><polygon class="cls-2" points="26.96 15.23 9.93 218.33 49.48 213.33 66.51 10.23 26.96 15.23"/><path class="cls-3" d="M858.26,427.42a3.81,3.81,0,0,0-.49-2.32,3.55,3.55,0,0,0,2.42.51,5.36,5.36,0,0,0,2.63-1.15,4.86,4.86,0,0,0-1,2.51,3.27,3.27,0,0,0,3.8,3.69,5.39,5.39,0,0,0,4.49-4.74,3.63,3.63,0,0,0-.52-2.31,3.58,3.58,0,0,0,2.41.51,5.23,5.23,0,0,0,2.6-1.15,5,5,0,0,0-.93,2.5,3.26,3.26,0,0,0,3.81,3.69,5.36,5.36,0,0,0,4.44-4.73,3.88,3.88,0,0,0-.5-2.32,3.61,3.61,0,0,0,2.45.51,5.13,5.13,0,0,0,2.55-1.14,5.14,5.14,0,0,0-.92,2.5,3.27,3.27,0,0,0,3.79,3.69,5.42,5.42,0,0,0,4.5-4.74,3.81,3.81,0,0,0-.5-2.32,3.54,3.54,0,0,0,1.64.47l.74-8.76a5.39,5.39,0,0,0-1.34.58,4.61,4.61,0,0,0,.71-2.19,4.54,4.54,0,0,0-.15-1.67,4.27,4.27,0,0,0,1,.18l.79-9.36c-.18.08-.3.1-.5.17a7.35,7.35,0,0,0,.4-1.55,4.49,4.49,0,0,0-.09-1.18,1.36,1.36,0,0,0,.41,0l.81-9.83h-.12a4.68,4.68,0,0,0,.23-1.16c0-.23,0-.41,0-.64h0l2.49-29.73-5.1.64h-.08l-11.77,1.49h-.06l-11.77,1.48h-.1l-10.67,1.35-3.13,37.18a4.07,4.07,0,0,1,0,.47h-.08l-.8,9.72c.11-.06.25-.08.37-.14a6.87,6.87,0,0,0-.3,1.36,4.7,4.7,0,0,0,.21,1.86c-.15,0-.36-.05-.54-.09L855.9,420a9.35,9.35,0,0,0,1-.54,5.1,5.1,0,0,0-.72,2.23,4.06,4.06,0,0,0,.54,2.48,2.93,2.93,0,0,0-1.17-.43l-.67,8.16A5.44,5.44,0,0,0,858.26,427.42ZM894,368.7a2.6,2.6,0,0,1,.28,0c.09,0,.18-.06.26-.07v0a.82.82,0,0,0,0,.32c-.1,0-.23,0-.31,0s-.24.07-.34.09a1.3,1.3,0,0,0,.08-.34Zm-1.25,11.89a2.37,2.37,0,0,0,.53,0,3.59,3.59,0,0,0,.6-.14,2.18,2.18,0,0,0-.08.36,4.62,4.62,0,0,0,0,.84c-.23,0-.42,0-.64,0s-.4.11-.62.14a7.88,7.88,0,0,0,.2-.87C892.77,380.81,892.7,380.73,892.73,380.59Zm-1.51,11.63a3.48,3.48,0,0,0,1.07,0,4.21,4.21,0,0,0,1.12-.3c0,.33-.13.63-.15.95a4.73,4.73,0,0,0,0,1.2,3.45,3.45,0,0,0-1.16,0,4.27,4.27,0,0,0-1.19.31,7,7,0,0,0,.25-1.24A7.23,7.23,0,0,0,891.22,392.22Zm-1.4,11.84a4.53,4.53,0,0,0,1.47.06,5,5,0,0,0,1.46-.43,8.65,8.65,0,0,0-.3,1.36,4.64,4.64,0,0,0,.26,1.85,4,4,0,0,0-1.65-.16,4.88,4.88,0,0,0-1.67.58,7.45,7.45,0,0,0,.56-2A3.72,3.72,0,0,0,889.82,404.06Zm-1.54,11.41a3.87,3.87,0,0,0,2,.32,5.35,5.35,0,0,0,2.11-.84,5.72,5.72,0,0,0-.7,2.22,4.28,4.28,0,0,0,.53,2.48,3.29,3.29,0,0,0-2.23-.46,4.67,4.67,0,0,0-2.37,1.05,6.28,6.28,0,0,0,1-2.68A3.76,3.76,0,0,0,888.28,415.47Zm.54-52.12h0c0,.12,0,.2,0,.32s0,0,0,0,0,0,0,0,0-.2,0-.29Zm-1.26,11.93c.08,0,.2,0,.31,0a3.09,3.09,0,0,1,.31-.09c0,.11,0,.2-.08.32a3.85,3.85,0,0,1,0,.58c-.08,0-.17,0-.29,0s-.25.1-.37.11a2.19,2.19,0,0,0,.13-.59C887.58,375.46,887.53,375.39,887.56,375.28ZM886,387.16a6.21,6.21,0,0,0,.86,0,6,6,0,0,0,.82-.19,2.69,2.69,0,0,0-.14.66,5.06,5.06,0,0,0,.06,1.12,6.69,6.69,0,0,0-.89,0,7.78,7.78,0,0,0-.92.21,7.77,7.77,0,0,0,.25-1.17A3.39,3.39,0,0,0,886,387.16Zm-1.32,11.63a4.91,4.91,0,0,0,1.21,0,5.72,5.72,0,0,0,1.17-.29,5.64,5.64,0,0,0-.28,1.23,5.41,5.41,0,0,0,.13,1.48,5,5,0,0,0-1.23,0,6.14,6.14,0,0,0-1.29.35,6.06,6.06,0,0,0,.35-1.54A4.21,4.21,0,0,0,884.7,398.79Zm-1.62,11.75a4.58,4.58,0,0,0,1.82.15,6,6,0,0,0,1.88-.62,5.69,5.69,0,0,0-.52,1.75,3.76,3.76,0,0,0,.4,2.05,3.9,3.9,0,0,0-2-.28,5.52,5.52,0,0,0-2.13.8,4.73,4.73,0,0,0,.56-3.85Zm-1-40.35c.08,0,.19,0,.33,0s.15-.07.26-.08v0c0,.12,0,.23,0,.33a2.76,2.76,0,0,1-.29,0,2.92,2.92,0,0,0-.34.08,1.19,1.19,0,0,0,0-.33Zm-1.27,11.9a3.05,3.05,0,0,0,.59,0,2.62,2.62,0,0,0,.54-.13,3.6,3.6,0,0,1,0,.36,4.74,4.74,0,0,0,0,.84c-.22,0-.41,0-.58,0s-.39.11-.64.14c0-.27.07-.56.1-.85A3.39,3.39,0,0,0,880.86,382.09Zm-1.49,11.63a3.71,3.71,0,0,0,1.12,0,4.92,4.92,0,0,0,1.09-.3,5.6,5.6,0,0,0-.19.94,3.86,3.86,0,0,0,.09,1.2,4.55,4.55,0,0,0-2.35.3c.07-.38.19-.8.23-1.24S879.37,394,879.37,393.72ZM878,405.55a4,4,0,0,0,1.47.06,4.68,4.68,0,0,0,1.46-.43,6.87,6.87,0,0,0-.3,1.36,4.31,4.31,0,0,0,.25,1.85,4.15,4.15,0,0,0-1.64-.16,5.22,5.22,0,0,0-1.73.59,5.28,5.28,0,0,0,.55-2A5.15,5.15,0,0,0,878,405.55ZM876.44,417a3.77,3.77,0,0,0,2.07.31,5.21,5.21,0,0,0,2.11-.84,4.85,4.85,0,0,0-.72,2.23,4.06,4.06,0,0,0,.53,2.48,3.21,3.21,0,0,0-2.21-.46,4.79,4.79,0,0,0-2.42,1,5.56,5.56,0,0,0,1-2.67A4.14,4.14,0,0,0,876.44,417Zm.55-52.12h0c0,.12.05.2.05.32H877l0,0a1.62,1.62,0,0,1,.06-.29Zm-1.28,11.93a2.71,2.71,0,0,1,.29,0c.1,0,.24-.08.34-.09a2.91,2.91,0,0,0,0,.31c0,.17,0,.35,0,.58-.15,0-.22,0-.36,0s-.23.09-.31.1c0-.23.09-.42.09-.58S875.68,376.89,875.71,376.78Zm-1.5,11.88a5.38,5.38,0,0,0,.8,0,5.11,5.11,0,0,0,.88-.2,2.05,2.05,0,0,0-.16.66,10,10,0,0,0,0,1.13,5.53,5.53,0,0,0-.9,0,6.71,6.71,0,0,0-.92.21,4.45,4.45,0,0,0,.28-1.17C874.24,389.06,874.18,388.89,874.21,388.66Zm-1.34,11.63a5.08,5.08,0,0,0,1.17,0,6.91,6.91,0,0,0,1.21-.3,3.72,3.72,0,0,0-.27,1.22,4.53,4.53,0,0,0,.1,1.49,5.17,5.17,0,0,0-1.25,0,6.67,6.67,0,0,0-1.29.35,4.7,4.7,0,0,0,.42-1.55A5.55,5.55,0,0,0,872.87,400.29ZM871.17,412a4,4,0,0,0,1.87.14,5.87,5.87,0,0,0,1.87-.61,6,6,0,0,0-.45,1.75,4.18,4.18,0,0,0,.35,2.05,3.82,3.82,0,0,0-2-.28,6,6,0,0,0-2.14.8,4.76,4.76,0,0,0,.79-2.19A4.06,4.06,0,0,0,871.17,412Zm-.85-40.35c.09,0,.17,0,.27,0s.18-.07.3-.09v.05a1.15,1.15,0,0,1,0,.33,2.61,2.61,0,0,0-.28,0c-.11,0-.25.07-.34.08a2.75,2.75,0,0,0,.1-.34ZM869,383.58a2.15,2.15,0,0,0,.57,0,2.38,2.38,0,0,0,.56-.13c0,.15-.07.24-.09.36a3.71,3.71,0,0,0,.08.83c-.23,0-.41,0-.64,0s-.39.11-.61.14c0-.27.11-.57.13-.86C869,383.81,869,383.73,869,383.58Zm-1.51,11.64a4.08,4.08,0,0,0,1.11,0,5.3,5.3,0,0,0,1.14-.31,5.78,5.78,0,0,0-.17.95,4,4,0,0,0,0,1.21,3.44,3.44,0,0,0-1.16,0,4.27,4.27,0,0,0-1.19.31,6.63,6.63,0,0,0,.26-1.24A3.16,3.16,0,0,0,867.5,395.22ZM866.2,407a3.42,3.42,0,0,0,1.41.07,5.4,5.4,0,0,0,1.5-.43,6.74,6.74,0,0,0-.28,1.35,5.1,5.1,0,0,0,.2,1.86,4.48,4.48,0,0,0-1.64-.16,4.92,4.92,0,0,0-1.7.59,5.77,5.77,0,0,0,.56-2A6.35,6.35,0,0,0,866.2,407Zm-1.59,11.42a3.85,3.85,0,0,0,2,.32,5.52,5.52,0,0,0,2.13-.84,5.25,5.25,0,0,0-.73,2.23,4.39,4.39,0,0,0,.53,2.48,3.19,3.19,0,0,0-2.22-.46,4.87,4.87,0,0,0-2.41,1,5.75,5.75,0,0,0,1-2.68A4.29,4.29,0,0,0,864.61,418.46Zm.52-52.11h0a3.11,3.11,0,0,0,0,.32h-.06s0,0,0,0a2.07,2.07,0,0,1,0-.29Zm-1.25,11.92a2.71,2.71,0,0,0,.29,0c.1,0,.22-.07.34-.09l-.08.32c0,.17,0,.35,0,.57-.16,0-.25,0-.36,0s-.21.09-.35.1a2.19,2.19,0,0,0,.13-.59C863.9,378.46,863.85,378.38,863.88,378.27Zm-1.5,11.88a3.61,3.61,0,0,0,.8,0,4.24,4.24,0,0,0,.84-.19,2,2,0,0,0-.12.66,5.78,5.78,0,0,0,0,1.12,6.94,6.94,0,0,0-.9,0,6.54,6.54,0,0,0-.9.2,4.78,4.78,0,0,0,.24-1.16C862.4,390.56,862.35,390.38,862.38,390.15ZM861,401.78a5.08,5.08,0,0,0,1.17,0,6.35,6.35,0,0,0,1.18-.29,5.52,5.52,0,0,0-.26,1.22,4.53,4.53,0,0,0,.13,1.49,4.41,4.41,0,0,0-1.26,0,5.09,5.09,0,0,0-1.27.35,6.73,6.73,0,0,0,.36-1.55A5.15,5.15,0,0,0,861,401.78Zm-1.68,11.76a5.08,5.08,0,0,0,1.85.14,4.74,4.74,0,0,0,1.89-.62,4.52,4.52,0,0,0-.47,1.75,3.65,3.65,0,0,0,.36,2.05,4.22,4.22,0,0,0-2-.28,6.07,6.07,0,0,0-2.16.81,4.61,4.61,0,0,0,.71-2.19A4.08,4.08,0,0,0,859.36,413.54Zm35.26,11.4-.66,7.85a3.09,3.09,0,0,1-2.78-3.53A5.17,5.17,0,0,1,894.62,424.94Zm-15.3,5.82a5.16,5.16,0,0,1,4.27-4.49,3.08,3.08,0,0,1,3.54,3.5,5.1,5.1,0,0,1-4.22,4.47A3.08,3.08,0,0,1,879.32,430.76Zm9.66.81a3.09,3.09,0,0,1,3.55,3.54,5.09,5.09,0,0,1-4.22,4.47,3.06,3.06,0,0,1-3.54-3.49A5.13,5.13,0,0,1,889,431.57Zm4.58,5.87-.59,7.14a2.82,2.82,0,0,1-2.56-3.2A4.78,4.78,0,0,1,893.56,437.44Zm-26.06-5.19a5.12,5.12,0,0,1,4.22-4.48,3.07,3.07,0,0,1,3.58,3.49,5.07,5.07,0,0,1-4.26,4.48A3.07,3.07,0,0,1,867.5,432.25Zm9.67.81a3.1,3.1,0,0,1,3.53,3.54,5.13,5.13,0,0,1-4.2,4.48,3.09,3.09,0,0,1-3.58-3.49A5.16,5.16,0,0,1,877.17,433.06Zm1.41,9.81a4.73,4.73,0,0,1,4-4.18,2.88,2.88,0,0,1,3.33,3.26,4.79,4.79,0,0,1-4,4.19A2.88,2.88,0,0,1,878.58,442.87Zm9.34,1.41a2.7,2.7,0,0,1,3.15,3,4.53,4.53,0,0,1-3.73,4,2.68,2.68,0,0,1-3.08-3.1A4.36,4.36,0,0,1,887.92,444.28Zm4.6,5.84-.52,6.13a2.46,2.46,0,0,1-2.1-2.78A4.08,4.08,0,0,1,892.52,450.12Zm-33.31-12.88a3.09,3.09,0,0,1-3.58-3.49,5.15,5.15,0,0,1,4.26-4.48,3.06,3.06,0,0,1,3.55,3.49A5.08,5.08,0,0,1,859.21,437.24Zm6.1-2.68a3.1,3.1,0,0,1,3.55,3.54,5.12,5.12,0,0,1-4.22,4.48,3.1,3.1,0,0,1-3.59-3.49A5.2,5.2,0,0,1,865.31,434.56Zm8.72,8.89a4.75,4.75,0,0,1-4,4.19,2.89,2.89,0,0,1-3.36-3.27,4.76,4.76,0,0,1,4-4.18A2.86,2.86,0,0,1,874,443.45Zm2.08,2.32a2.64,2.64,0,0,1,3,3,4.44,4.44,0,0,1-3.6,4,2.71,2.71,0,0,1-3.11-3.11A4.38,4.38,0,0,1,876.11,445.77Zm1.94,9.2a4.13,4.13,0,0,1,3.44-3.6,2.45,2.45,0,0,1,2.83,2.81,4.08,4.08,0,0,1-3.38,3.61A2.48,2.48,0,0,1,878.05,455Zm11.71,4.56a4.17,4.17,0,0,1-3.42,3.6,2.48,2.48,0,0,1-2.85-2.81,4.11,4.11,0,0,1,3.39-3.63A2.48,2.48,0,0,1,889.76,459.53Zm1.71,3-.48,5.65a2.22,2.22,0,0,1-1.86-2.56A4,4,0,0,1,891.47,462.48Zm-37.55-18.71.63-7.67a3.08,3.08,0,0,1,2.48,3.5A5.22,5.22,0,0,1,853.92,443.77Zm4.32,5.37a2.88,2.88,0,0,1-3.34-3.28,4.72,4.72,0,0,1,4-4.17,2.87,2.87,0,0,1,3.34,3.25A4.81,4.81,0,0,1,858.24,449.14Zm6-1.87a2.67,2.67,0,0,1,3.09,3,4.5,4.5,0,0,1-3.67,4,2.71,2.71,0,0,1-3.08-3.11A4.41,4.41,0,0,1,864.24,447.27Zm2,9.2a4.1,4.1,0,0,1,3.38-3.6,2.45,2.45,0,0,1,2.88,2.8,4.07,4.07,0,0,1-3.42,3.62A2.46,2.46,0,0,1,866.23,456.47Zm5.4,5.35a4.11,4.11,0,0,1,3.44-3.64,2.48,2.48,0,0,1,2.85,2.85,4.15,4.15,0,0,1-3.39,3.59A2.48,2.48,0,0,1,871.63,461.82Zm11.43,4.52a3.75,3.75,0,0,1-3.1,3.35,2.32,2.32,0,0,1-2.7-2.62,3.83,3.83,0,0,1,3.18-3.32A2.27,2.27,0,0,1,883.06,466.34Zm5.21,5.4a3.57,3.57,0,0,1-2.9,3.05,2.09,2.09,0,0,1-2.44-2.38,3.49,3.49,0,0,1,2.9-3.09A2.15,2.15,0,0,1,888.27,471.74Zm2.17,3.2-.44,5.15a2.1,2.1,0,0,1-1.67-2.38A3.42,3.42,0,0,1,890.44,474.94Zm-37.5-19.59.55-6.52a2.71,2.71,0,0,1,2,2.95A4.57,4.57,0,0,1,852.94,455.35Zm1.42,2.62a4.12,4.12,0,0,1,3.43-3.6,2.45,2.45,0,0,1,2.84,2.8,4.08,4.08,0,0,1-3.39,3.62A2.48,2.48,0,0,1,854.36,458Zm5.42,5.35a4.15,4.15,0,0,1,3.42-3.64,2.47,2.47,0,0,1,2.85,2.85,4.12,4.12,0,0,1-3.39,3.59A2.49,2.49,0,0,1,859.78,463.32Zm11.48,4.51a3.8,3.8,0,0,1-3.17,3.36,2.3,2.3,0,0,1-2.65-2.63,3.8,3.8,0,0,1,3.13-3.31A2.3,2.3,0,0,1,871.26,467.83Zm5.18,5.4a3.57,3.57,0,0,1-2.88,3.06,2.13,2.13,0,0,1-2.48-2.38,3.54,3.54,0,0,1,2.94-3.1A2.13,2.13,0,0,1,876.44,473.23Zm5.39,5.3a3.5,3.5,0,0,1-2.89,3.1,2.1,2.1,0,0,1-2.43-2.43,3.51,3.51,0,0,1,2.9-3.08A2.1,2.1,0,0,1,881.83,478.53Zm5.16,5.39a3.19,3.19,0,0,1-2.62,2.79,1.94,1.94,0,0,1-2.23-2.18,3.26,3.26,0,0,1,2.64-2.8A1.93,1.93,0,0,1,887,483.92Zm2.38,3.68-.34,4.11a1.76,1.76,0,0,1-1.19-1.91A2.94,2.94,0,0,1,889.37,487.6ZM852,467.23l.49-6a2.52,2.52,0,0,1,1.77,2.77A4.19,4.19,0,0,1,852,467.23Zm7.43,2.1a3.77,3.77,0,0,1-3.13,3.35,2.3,2.3,0,0,1-2.68-2.62,3.83,3.83,0,0,1,3.16-3.32A2.29,2.29,0,0,1,859.39,469.33Zm5.18,5.4a3.51,3.51,0,0,1-2.88,3.06,2.11,2.11,0,0,1-2.43-2.38,3.53,3.53,0,0,1,2.89-3.1A2.11,2.11,0,0,1,864.57,474.73ZM870,480a3.5,3.5,0,0,1-2.92,3.1,2.09,2.09,0,0,1-2.4-2.43,3.49,3.49,0,0,1,2.88-3.08A2.12,2.12,0,0,1,870,480Zm5.16,5.38a3.21,3.21,0,0,1-2.59,2.8,1.94,1.94,0,0,1-2.25-2.19,3.22,3.22,0,0,1,2.67-2.8A1.93,1.93,0,0,1,875.15,485.41Zm5.11,5.35a2.79,2.79,0,0,1-2.29,2.49,1.69,1.69,0,0,1-2-1.95,2.79,2.79,0,0,1,2.34-2.45A1.68,1.68,0,0,1,880.26,490.76Zm5.2,5.38a2.45,2.45,0,0,1-2.07,2.2,1.51,1.51,0,0,1-1.73-1.72,2.45,2.45,0,0,1,2.06-2.18A1.47,1.47,0,0,1,885.46,496.14Zm2.87,3.88-.31,3.57a1.51,1.51,0,0,1-1-1.65A2.61,2.61,0,0,1,888.33,500ZM851,478.85l.4-4.94a2.3,2.3,0,0,1,1.39,2.32A3.55,3.55,0,0,1,851,478.85Zm7.18,2.67a3.49,3.49,0,0,1-2.92,3.1,2.11,2.11,0,0,1-2.44-2.42,3.52,3.52,0,0,1,2.92-3.08A2.11,2.11,0,0,1,858.16,481.52Zm5.16,5.39a3.22,3.22,0,0,1-2.63,2.8,2,2,0,0,1-2.25-2.18,3.29,3.29,0,0,1,2.67-2.81A2,2,0,0,1,863.32,486.91Zm5.13,5.34a2.81,2.81,0,0,1-2.36,2.5,1.71,1.71,0,0,1-2-1.95,2.83,2.83,0,0,1,2.34-2.45A1.69,1.69,0,0,1,868.45,492.25Zm5.18,5.39a2.49,2.49,0,0,1-2,2.19,1.5,1.5,0,0,1-1.77-1.71,2.46,2.46,0,0,1,2.1-2.19A1.49,1.49,0,0,1,873.63,497.64Zm5.42,5.31a2.51,2.51,0,0,1-2.07,2.19,1.49,1.49,0,0,1-1.73-1.71,2.44,2.44,0,0,1,2-2.16A1.52,1.52,0,0,1,879.05,503Zm5.09,5.36a2.11,2.11,0,0,1-1.76,1.9,1.31,1.31,0,0,1-1.51-1.49,2.19,2.19,0,0,1,1.81-1.87A1.27,1.27,0,0,1,884.14,508.31Zm3.11,4.47-.19,2.37a1.16,1.16,0,0,1-.53-1.08A1.88,1.88,0,0,1,887.25,512.78Zm-37.28-22,.37-4.3a1.89,1.89,0,0,1,1.11,2A3.14,3.14,0,0,1,850,490.73Zm6.63,3a2.84,2.84,0,0,1-2.34,2.5,1.69,1.69,0,0,1-2-2,2.78,2.78,0,0,1,2.33-2.45A1.7,1.7,0,0,1,856.6,493.75Zm5.16,5.39a2.44,2.44,0,0,1-2,2.19,1.51,1.51,0,0,1-1.74-1.71,2.46,2.46,0,0,1,2.07-2.19A1.47,1.47,0,0,1,861.76,499.14Zm5.42,5.31a2.51,2.51,0,0,1-2.07,2.19,1.5,1.5,0,0,1-1.73-1.71,2.46,2.46,0,0,1,2-2.16A1.53,1.53,0,0,1,867.18,504.45Zm5.15,5.35a2.1,2.1,0,0,1-1.75,1.9,1.3,1.3,0,0,1-1.54-1.48,2.19,2.19,0,0,1,1.84-1.88A1.27,1.27,0,0,1,872.33,509.8Zm5.18,5.41a1.79,1.79,0,0,1-1.52,1.58,1.1,1.1,0,0,1-1.33-1.22,1.87,1.87,0,0,1,1.58-1.66A1.12,1.12,0,0,1,877.51,515.21ZM883,520.5a1.87,1.87,0,0,1-1.56,1.63,1.13,1.13,0,0,1-1.33-1.27,1.92,1.92,0,0,1,1.58-1.63A1.14,1.14,0,0,1,883,520.5Zm3.25,4.76-.13,1.74a.94.94,0,0,1-.31-.82A1.46,1.46,0,0,1,886.2,525.26Zm-37.19-23,.25-3.07a1.48,1.48,0,0,1,.69,1.43A2.48,2.48,0,0,1,849,502.27Zm6.34,3.68a2.48,2.48,0,0,1-2.07,2.19,1.52,1.52,0,0,1-1.75-1.71,2.5,2.5,0,0,1,2.07-2.17A1.51,1.51,0,0,1,855.35,506Zm5.15,5.35a2.13,2.13,0,0,1-1.79,1.9,1.32,1.32,0,0,1-1.54-1.48,2.24,2.24,0,0,1,1.83-1.88A1.28,1.28,0,0,1,860.5,511.3Zm5.19,5.4a1.84,1.84,0,0,1-1.57,1.59,1.07,1.07,0,0,1-1.26-1.23,1.83,1.83,0,0,1,1.51-1.65A1.13,1.13,0,0,1,865.69,516.7Zm5.41,5.3a1.85,1.85,0,0,1-1.52,1.63,1.11,1.11,0,0,1-1.33-1.27,1.87,1.87,0,0,1,1.58-1.64A1.12,1.12,0,0,1,871.1,522Zm5.12,5.39a1.45,1.45,0,0,1-1.21,1.3.91.91,0,0,1-1.1-1,1.53,1.53,0,0,1,1.29-1.36A.91.91,0,0,1,876.22,527.39Zm5.15,5.35a1.13,1.13,0,0,1-1,1,.71.71,0,0,1-.83-.8,1.2,1.2,0,0,1,1-1A.7.7,0,0,1,881.37,532.74ZM848,514.13l.2-2.47a1.32,1.32,0,0,1,.44,1.13A2.08,2.08,0,0,1,848,514.13Zm5.82,4.07a1.86,1.86,0,0,1-1.55,1.59,1.06,1.06,0,0,1-1.24-1.24,1.78,1.78,0,0,1,1.49-1.65A1.14,1.14,0,0,1,853.84,518.2Zm5.39,5.3a1.85,1.85,0,0,1-1.51,1.63,1.13,1.13,0,0,1-1.32-1.28,1.92,1.92,0,0,1,1.56-1.63A1.12,1.12,0,0,1,859.23,523.5Zm5.16,5.38a1.51,1.51,0,0,1-1.25,1.31.9.9,0,0,1-1-1,1.54,1.54,0,0,1,1.24-1.35A.93.93,0,0,1,864.39,528.88Zm5.17,5.35a1.12,1.12,0,0,1-.95,1,.71.71,0,0,1-.88-.79,1.21,1.21,0,0,1,1-1A.7.7,0,0,1,869.56,534.23Zm5.14,5.37a.88.88,0,0,1-.68.76.53.53,0,0,1-.63-.6.91.91,0,0,1,.74-.75A.52.52,0,0,1,874.7,539.6Zm5.46,5.33a.87.87,0,0,1-.75.74.52.52,0,0,1-.62-.57.88.88,0,0,1,.74-.75A.53.53,0,0,1,880.16,544.93ZM847.42,525a1.7,1.7,0,0,1-.39.91l.13-1.7A1.14,1.14,0,0,1,847.42,525Zm5.1,5.39a1.44,1.44,0,0,1-1.21,1.31.94.94,0,0,1-1.09-1,1.58,1.58,0,0,1,1.28-1.35A.9.9,0,0,1,852.52,530.38Zm5.2,5.35a1.16,1.16,0,0,1-1,1,.7.7,0,0,1-.84-.79,1.2,1.2,0,0,1,1-1A.72.72,0,0,1,857.72,535.73Zm5.15,5.36a.85.85,0,0,1-.72.77.53.53,0,0,1-.57-.61.91.91,0,0,1,.68-.74A.52.52,0,0,1,862.87,541.09Zm5.42,5.34a.85.85,0,0,1-.68.74.52.52,0,0,1-.63-.58.85.85,0,0,1,.75-.75A.5.5,0,0,1,868.29,546.43Zm5.18,5.36a.61.61,0,0,1-.45.51.35.35,0,0,1-.4-.4.56.56,0,0,1,.47-.49A.34.34,0,0,1,873.47,551.79Zm5,5.2c.08,0,.19,0,.16.15a.23.23,0,0,1-.17.2.14.14,0,0,1-.15-.16C878.33,557.07,878.38,557,878.46,557ZM851,542.59a.86.86,0,0,1-.71.77c-.4,0-.6-.21-.57-.61a.83.83,0,0,1,.69-.75A.52.52,0,0,1,851,542.59Zm5.43,5.33a.87.87,0,0,1-.72.75.53.53,0,0,1-.63-.58.91.91,0,0,1,.75-.75A.51.51,0,0,1,856.46,547.92Zm5.19,5.36a.63.63,0,0,1-.5.52.34.34,0,0,1-.36-.41.53.53,0,0,1,.44-.48A.35.35,0,0,1,861.65,553.28Zm5,5.2a.12.12,0,0,1,.1.16c0,.1-.07.19-.12.2a.18.18,0,0,1-.2-.16A.28.28,0,0,1,866.65,558.48Zm-16.86-3.7a.6.6,0,0,1-.46.51.36.36,0,0,1-.4-.4.6.6,0,0,1,.47-.49A.34.34,0,0,1,849.79,554.78Zm5,5.21c.09,0,.16,0,.12.15s0,.19-.13.2-.15-.07-.15-.17S854.69,560,854.78,560Z" transform="translate(-833.91 -345.69)"/><polygon class="cls-2" points="65.66 20.37 66.51 10.2 26.96 15.2 9.92 218.29 19.85 217.03 36.03 24.11 65.66 20.37"/><path class="cls-4" d="M887.14,570.05c.14,0,.22,0,.35,0s.25-.08.33-.09a4.49,4.49,0,0,0-.13.59,1.21,1.21,0,0,1,0,.33c-.1,0-.16,0-.26,0s-.24.07-.39.08a.62.62,0,0,0,.11-.34C887.16,570.41,887.12,570.26,887.14,570.05Zm5.44,5.88a.36.36,0,0,0,0,.11.53.53,0,0,1,.25-.08.69.69,0,0,1,.29,0v0c0-.15.06-.28.07-.38a3,3,0,0,1-.33.1c-.08,0-.19,0-.29,0S892.59,575.85,892.58,575.93Zm.73-12.95a4,4,0,0,1,0,.86c0,.09-.06.22-.08.34a2.59,2.59,0,0,1,.58-.11,2,2,0,0,1,.53,0c0-.13,0-.25,0-.33a4.05,4.05,0,0,1,.13-.88,4,4,0,0,1-.62.14A3.11,3.11,0,0,1,893.31,563Zm-12.59,14.45a.28.28,0,0,0,0,.11.63.63,0,0,1,.28-.08,1.18,1.18,0,0,1,.33,0v0a2.87,2.87,0,0,0,0-.38,1.07,1.07,0,0,1-.33.11c-.08,0-.17,0-.31,0S880.73,577.35,880.72,577.43Zm13.12-25.69a4.33,4.33,0,0,1-.14.84v.08a5.13,5.13,0,0,1,1.11-.26,5.29,5.29,0,0,1,1.13,0,3.06,3.06,0,0,1-.06-.9,8.15,8.15,0,0,1,.28-1.23,5.6,5.6,0,0,1-1.2.32,4.38,4.38,0,0,1-1.09,0l0,.54A3.52,3.52,0,0,1,893.84,551.74Zm-7.45,31h0c0-.1.06-.23.06-.32h-.12A.78.78,0,0,1,886.39,582.78Zm19.84-20.24a1.92,1.92,0,0,0,0-.33,4.9,4.9,0,0,1,.15-.88,4.27,4.27,0,0,1-.64.14,2.19,2.19,0,0,1-.57,0c0,.29,0,.54,0,.87a2.23,2.23,0,0,1,0,.33,3.69,3.69,0,0,1,.56-.11A2.24,2.24,0,0,1,906.23,562.54Zm1.53-11.66a4.47,4.47,0,0,1,0-.89,4.09,4.09,0,0,1,.3-1.24,6.47,6.47,0,0,1-1.24.33,5.53,5.53,0,0,1-1.15,0,4.52,4.52,0,0,1,.07,1.18,8,8,0,0,1-.15.92,5,5,0,0,1,1.08-.26A5.3,5.3,0,0,1,907.76,550.88Zm-12-10.4a4.69,4.69,0,0,1,1.47.1,4.26,4.26,0,0,1-.1-1.28,5,5,0,0,1,.57-2,5.26,5.26,0,0,1-1.72.56,3.56,3.56,0,0,1-1.09,0l-.25,3A4.37,4.37,0,0,1,895.81,540.48Zm8.87,33.68a1.78,1.78,0,0,1-.29,0c0,.11,0,.22,0,.31a.31.31,0,0,0,0,.1.49.49,0,0,1,.25-.07.74.74,0,0,1,.33,0s-.07,0-.07,0,.09-.27.1-.38A1.35,1.35,0,0,1,904.68,574.16Zm1.81-46a5.29,5.29,0,0,1,2.12-.82,3.69,3.69,0,0,1,2,.3,4,4,0,0,1-.36-2.08,5.19,5.19,0,0,1,1-2.67,5.1,5.1,0,0,1-2.41,1,3.42,3.42,0,0,1-2.24-.45,3.91,3.91,0,0,1,.62,2.47A5.22,5.22,0,0,1,906.49,528.18Zm3.63,51.6c0-.1,0-.23,0-.32h-.06c0,.09,0,.21,0,.31Zm-1.11-42a5.38,5.38,0,0,1,.57-2,5.06,5.06,0,0,1-1.72.57,4.22,4.22,0,0,1-1.64-.14,3.92,3.92,0,0,1,.24,1.88,6.49,6.49,0,0,1-.32,1.34,5.69,5.69,0,0,1,1.5-.48,4.37,4.37,0,0,1,1.47.1A5.07,5.07,0,0,1,909,537.81Zm-10.82,43.47h.1c0-.1,0-.23,0-.31h-.1C898.2,581.06,898.2,581.18,898.19,581.28Zm-1.41-52.42a3.9,3.9,0,0,1,2.05.29,3.62,3.62,0,0,1-.36-2.07,5.33,5.33,0,0,1,1-2.67,4.87,4.87,0,0,1-2.38,1,3.59,3.59,0,0,1-1.09,0l-.31,3.74A4.78,4.78,0,0,1,896.78,528.86Zm7.09,3.54a6,6,0,0,1,.73-2.19,4.58,4.58,0,0,1-2.12.8,4.06,4.06,0,0,1-2.05-.27,3.9,3.9,0,0,1,.36,2,6.65,6.65,0,0,1-.45,1.78,5.24,5.24,0,0,1,1.89-.65,4.07,4.07,0,0,1,1.81.18A4.69,4.69,0,0,1,903.87,532.4ZM899,568.55c0,.21,0,.36,0,.57a.58.58,0,0,1-.09.34,3.18,3.18,0,0,0,.33-.08c.15,0,.21,0,.3,0a2.12,2.12,0,0,0,0-.33,2.54,2.54,0,0,1,.11-.59c-.14,0-.23.07-.37.09S899.11,568.53,899,568.55Zm2.1-11.09a3.13,3.13,0,0,1,0-.63,4.22,4.22,0,0,1,.24-1.14,8.48,8.48,0,0,1-.92.2,6.28,6.28,0,0,1-.86,0,5.88,5.88,0,0,1,0,1.11c0,.23-.07.46-.08.65a3.33,3.33,0,0,1,1.66-.21Zm1.25-12.83a4.34,4.34,0,0,1,.4-1.54,6,6,0,0,1-1.33.34,4.33,4.33,0,0,1-1.25,0,5.08,5.08,0,0,1,.11,1.47,8.51,8.51,0,0,1-.24,1.26,4.74,4.74,0,0,1,1.19-.31,4,4,0,0,1,1.15,0A4.56,4.56,0,0,1,902.35,544.63ZM912.92,556a3.46,3.46,0,0,1,0-.64,3.9,3.9,0,0,1,.22-1.14c-.34.08-.64.16-.9.2a7.16,7.16,0,0,1-.9,0,5.16,5.16,0,0,1,0,1.11,2.32,2.32,0,0,1-.09.65,3.78,3.78,0,0,1,.88-.22A3.59,3.59,0,0,1,912.92,556Zm-21.1,32.1v0h0v0ZM880,589.56v0h0v0Zm35-57.13.26-3.13a4.48,4.48,0,0,1-.9.21,3.43,3.43,0,0,1-2.08-.27,3.8,3.8,0,0,1,.36,2,5.49,5.49,0,0,1-.45,1.78,5.58,5.58,0,0,1,1.93-.65A3.25,3.25,0,0,1,915,532.43Zm-1,11.89.22-2.63a4.4,4.4,0,0,1-2.21.24,4.65,4.65,0,0,1,.14,1.46c0,.46-.16.84-.23,1.26a4.6,4.6,0,0,1,1.2-.31A8.42,8.42,0,0,1,914,544.32Zm-10.29,42.25v0h0v0ZM874.6,584h0c0,.09,0,.21,0,.31h0a3,3,0,0,1,.06-.32Zm.72-11.84c0,.1-.06.21-.08.34s.24-.07.34-.08.14,0,.29,0a1.73,1.73,0,0,0,0-.33,2.33,2.33,0,0,1,.16-.6c-.14,0-.26.08-.38.09s-.23,0-.31,0C875.31,571.75,875.33,571.91,875.32,572.12Zm-11.85,1.49a3.21,3.21,0,0,1-.1.35c.14,0,.24-.07.38-.09s.17,0,.25,0a2.14,2.14,0,0,0,0-.34,2.58,2.58,0,0,1,.12-.59c-.1,0-.24.08-.34.09s-.25,0-.35,0C863.44,573.25,863.49,573.41,863.47,573.61Zm5.44,5.31a.28.28,0,0,0,0,.12.68.68,0,0,1,.32-.09.63.63,0,0,1,.27,0v0a1.8,1.8,0,0,1,.08-.38l-.32.11a1.24,1.24,0,0,1-.31,0C868.89,578.72,868.92,578.84,868.91,578.92Zm41.92-11.87c0,.21,0,.37,0,.58s0,.2,0,.33.19-.06.33-.08.15,0,.25,0a1.42,1.42,0,0,0,0-.34c0-.2.07-.37.09-.58-.08,0-.23.07-.32.08S911,567,910.83,567.05ZM922.71,415.8a.92.92,0,0,0,1.09,1,1.41,1.41,0,0,0,.92-.58l-.87,10.38a1.13,1.13,0,0,0-.86-.26,1.84,1.84,0,0,0-1.57,1.64,1.1,1.1,0,0,0,1.32,1.24,1.65,1.65,0,0,0,.93-.48l-.78,9.4A1.8,1.8,0,0,0,922,438a2.47,2.47,0,0,0-2.1,2.2,1.5,1.5,0,0,0,1.77,1.7,2.12,2.12,0,0,0,.92-.39L921.9,450a1.85,1.85,0,0,0-.88-.11,2.92,2.92,0,0,0-2.37,2.5,1.72,1.72,0,0,0,2,1.95,2.37,2.37,0,0,0,.92-.35l-.64,7.64a1.93,1.93,0,0,0-.88-.11,3.54,3.54,0,0,0-2.93,3.08,2.13,2.13,0,0,0,2.48,2.42,4.82,4.82,0,0,0,.91-.3l-.58,6.81a2,2,0,0,0-.87-.05,3.81,3.81,0,0,0-3.22,3.32,2.35,2.35,0,0,0,2.72,2.63,2.84,2.84,0,0,0,.91-.34l-.54,6.36a2.41,2.41,0,0,0-.87-.1,4.13,4.13,0,0,0-3.45,3.6,2.48,2.48,0,0,0,2.9,2.84,4.47,4.47,0,0,0,.91-.28l-.46,5.56a4.61,4.61,0,0,0-.88-.09,4.85,4.85,0,0,0-4,4.22,2.92,2.92,0,0,0,3.36,3.3,5.45,5.45,0,0,0,.91-.31l-.4,4.72a3.27,3.27,0,0,0-.88,0,5.15,5.15,0,0,0-4.26,4.49,3.11,3.11,0,0,0,3.59,3.53,3,3,0,0,0,.89-.26l-.33,3.93a6.44,6.44,0,0,0-.88,0,5.43,5.43,0,0,0-2.61,1.11,5,5,0,0,0,.94-2.47,3.3,3.3,0,0,0-3.8-3.73,5.45,5.45,0,0,0-4.45,4.77,3.93,3.93,0,0,0,.48,2.29,3.68,3.68,0,0,0-2.43-.47,5.05,5.05,0,0,0-2.55,1.1,5.07,5.07,0,0,0,.9-2.46,3.28,3.28,0,0,0-3.78-3.73,4.83,4.83,0,0,0-1.11.31L897,513a3.92,3.92,0,0,0,1.09,0,5.1,5.1,0,0,0,4.22-4.48,3.07,3.07,0,0,0-3.55-3.5,4.59,4.59,0,0,0-1.12.32l.43-5.1a3,3,0,0,0,1.09.09,4.42,4.42,0,0,0,3.67-3.9,2.69,2.69,0,0,0-3.1-3.07,3.7,3.7,0,0,0-1.11.36l.49-5.89a2.8,2.8,0,0,0,1.09.08,4.06,4.06,0,0,0,3.38-3.59,2.49,2.49,0,0,0-2.84-2.86,3.44,3.44,0,0,0-1.12.37l.56-6.66a2.22,2.22,0,0,0,1.07.12,3.52,3.52,0,0,0,2.91-3.12,2.09,2.09,0,0,0-2.45-2.36,3.06,3.06,0,0,0-1.12.39l.63-7.49a2.09,2.09,0,0,0,1.07.16,3.12,3.12,0,0,0,2.62-2.81,1.87,1.87,0,0,0-2.2-2.14,2.77,2.77,0,0,0-1.12.44l.18-2.19.53-6.28a1.62,1.62,0,0,0,1.08.26,2.49,2.49,0,0,0,2.06-2.17,1.5,1.5,0,0,0-1.76-1.69,2.31,2.31,0,0,0-1.13.53l.79-9.41a1.34,1.34,0,0,0,1.07.34,2.18,2.18,0,0,0,1.78-1.91,1.32,1.32,0,0,0-1.51-1.49,2,2,0,0,0-1.13.6l.84-10.09a1,1,0,0,0,1.07.48,1.88,1.88,0,0,0,1.54-1.64,1.14,1.14,0,0,0-1.3-1.27,1.67,1.67,0,0,0-1.17.78L906,405.46l3.41-40.64,18.08,17.79-2.68,32.18a.92.92,0,0,0-.85-.34A1.51,1.51,0,0,0,922.71,415.8Zm2.83-24.47c0,.29.11.44.36.4s.36-.2.39-.49-.1-.4-.32-.37A.47.47,0,0,0,925.54,391.33Zm-1.32,12.21a.51.51,0,0,0,.63.57.85.85,0,0,0,.69-.74.51.51,0,0,0-.57-.59A.87.87,0,0,0,924.22,403.54ZM920.34,386c0,.08,0,.16.12.15a.23.23,0,0,0,.2-.19c0-.1-.08-.14-.17-.12S920.35,385.89,920.34,386Zm-5.44-5.35c0,.12.06.17.16.16s.15-.08.16-.2,0-.12-.11-.11A.24.24,0,0,0,914.9,380.64Zm-1.29,12.2a.35.35,0,0,0,.41.4.53.53,0,0,0,.45-.51.31.31,0,0,0-.37-.36A.56.56,0,0,0,913.61,392.84ZM912.35,405a.53.53,0,0,0,.63.57.89.89,0,0,0,.73-.74.53.53,0,0,0-.61-.59A.9.9,0,0,0,912.35,405Zm-3.86-17.55a.13.13,0,0,0,.14.14.3.3,0,0,0,.23-.19c0-.1-.1-.13-.2-.12A.18.18,0,0,0,908.49,387.49Zm2.35,29.81a.9.9,0,0,0,1.09,1,1.5,1.5,0,0,0,1.26-1.28.91.91,0,0,0-1.06-1.06A1.49,1.49,0,0,0,910.84,417.3ZM907,399.69a.5.5,0,0,0,.57.61.86.86,0,0,0,.7-.77.5.5,0,0,0-.6-.54A.77.77,0,0,0,907,399.69Zm2.55,29.78a1.12,1.12,0,0,0,1.31,1.24,1.9,1.9,0,0,0,1.56-1.61,1.13,1.13,0,0,0-1.31-1.28A1.88,1.88,0,0,0,909.57,429.47Zm-3.85-17.58a.71.71,0,0,0,.81.82,1.19,1.19,0,0,0,1-1,.71.71,0,0,0-.82-.82A1.2,1.2,0,0,0,905.72,411.89Zm4.11,31.5a2.44,2.44,0,0,0,2-2.18,1.48,1.48,0,0,0-1.71-1.72,2.49,2.49,0,0,0-2.07,2.19A1.51,1.51,0,0,0,909.83,443.39Zm-1.06,12.43a2.87,2.87,0,0,0,2.35-2.5,1.71,1.71,0,0,0-2-1.95,2.84,2.84,0,0,0-2.35,2.49A1.69,1.69,0,0,0,908.77,455.82Zm-1,12.68a3.52,3.52,0,0,0,2.88-3.09,2.11,2.11,0,0,0-2.42-2.41,3.55,3.55,0,0,0-2.9,3.08A2.14,2.14,0,0,0,907.72,468.5Zm-1,12.41a3.79,3.79,0,0,0,3.13-3.37,2.24,2.24,0,0,0-2.63-2.58,3.73,3.73,0,0,0-3.15,3.31A2.31,2.31,0,0,0,906.68,480.91Zm-1,12.36a4.1,4.1,0,0,0,3.39-3.63,2.47,2.47,0,0,0-2.84-2.81,4.18,4.18,0,0,0-3.43,3.6A2.49,2.49,0,0,0,905.63,493.27ZM904.57,506a4.82,4.82,0,0,0,4-4.23,2.91,2.91,0,0,0-3.34-3.29,4.83,4.83,0,0,0-4,4.22A2.91,2.91,0,0,0,904.57,506Zm-.37,4.39a5.12,5.12,0,0,0-4.22,4.48,3.1,3.1,0,0,0,3.55,3.54,5.12,5.12,0,0,0,4.22-4.52A3.08,3.08,0,0,0,904.2,510.37Zm6.41-6.81a5.15,5.15,0,0,0-4.22,4.49,3.08,3.08,0,0,0,3.55,3.49,5.12,5.12,0,0,0,4.26-4.48A3.1,3.1,0,0,0,910.61,503.56Zm1-11.66a4.44,4.44,0,0,0-3.67,3.93,2.66,2.66,0,0,0,3.1,3,4.37,4.37,0,0,0,3.66-3.89A2.68,2.68,0,0,0,911.58,491.9Zm1-11.9a4.12,4.12,0,0,0-3.38,3.65,2.46,2.46,0,0,0,2.84,2.81,4.08,4.08,0,0,0,3.42-3.6A2.51,2.51,0,0,0,912.59,480Zm1-11.65a3.45,3.45,0,0,0-2.87,3,2.11,2.11,0,0,0,2.41,2.45,3.53,3.53,0,0,0,2.91-3.12A2.09,2.09,0,0,0,913.56,468.35Zm1-11.89a3.15,3.15,0,0,0-2.59,2.75,1.92,1.92,0,0,0,2.17,2.21,3.23,3.23,0,0,0,2.67-2.82A1.92,1.92,0,0,0,914.56,456.46Zm1-11.63a2.46,2.46,0,0,0-2,2.17,1.48,1.48,0,0,0,1.73,1.69,2.47,2.47,0,0,0,2.07-2.17A1.49,1.49,0,0,0,915.53,444.83Zm2.55-10.45a1.35,1.35,0,0,0-1.55-1.49,2.16,2.16,0,0,0-1.75,1.91,1.3,1.3,0,0,0,1.48,1.49A2.21,2.21,0,0,0,918.08,434.38ZM917.55,421A1.88,1.88,0,0,0,916,422.6a1.09,1.09,0,0,0,1.27,1.28,1.85,1.85,0,0,0,1.57-1.63A1.14,1.14,0,0,0,917.55,421Zm1.8-10.8a.71.71,0,0,0-.82-.82,1.19,1.19,0,0,0-1,1,.72.72,0,0,0,.83.82A1.2,1.2,0,0,0,919.35,410.17Zm.79-12.14a.51.51,0,0,0-.62-.53.81.81,0,0,0-.68.69.52.52,0,0,0,.57.61A.87.87,0,0,0,920.14,398Z" transform="translate(-833.91 -345.69)"/><path class="cls-1" d="M1040.48,379.61l-27.08-26.69a7.71,7.71,0,0,0-3-1.78,8.74,8.74,0,0,0-3.82-.3l-9.87,1.25-9.88,1.25L977,354.58l-9.89,1.25a11.32,11.32,0,0,0-4,1.28,12.73,12.73,0,0,0-3.28,2.57,12.24,12.24,0,0,0-2.39,3.47,11.17,11.17,0,0,0-1.16,4.09L952.06,418l-4.25,50.74-4.26,50.78-4.26,50.78a8,8,0,0,0,.5,3.82,6.68,6.68,0,0,0,1.83,3s25.46,25.13,27.07,26.76a8,8,0,0,0,6.75,2.08l19.79-2.5,19.76-2.5a12.21,12.21,0,0,0,7.23-3.85,12.79,12.79,0,0,0,3.5-7.57L1034.26,488l8.5-101.56A8.36,8.36,0,0,0,1040.48,379.61Z" transform="translate(-833.91 -345.69)"/><polygon class="cls-2" points="132.3 20.3 115.26 223.39 154.82 218.39 171.85 15.3 132.3 20.3"/><path class="cls-3" d="M963.6,432.49a3.71,3.71,0,0,0-.5-2.32,3.59,3.59,0,0,0,2.43.51,5.45,5.45,0,0,0,2.63-1.15,4.8,4.8,0,0,0-1,2.51,3.27,3.27,0,0,0,3.8,3.68,5.38,5.38,0,0,0,4.49-4.73,3.65,3.65,0,0,0-.52-2.32,3.52,3.52,0,0,0,2.41.51A5.21,5.21,0,0,0,980,428a5,5,0,0,0-.94,2.5,3.27,3.27,0,0,0,3.82,3.69,5.38,5.38,0,0,0,4.44-4.73,3.89,3.89,0,0,0-.5-2.33,3.61,3.61,0,0,0,2.45.51,5,5,0,0,0,2.54-1.14,5.39,5.39,0,0,0-.92,2.5,3.27,3.27,0,0,0,3.8,3.69,5.39,5.39,0,0,0,4.49-4.74,3.74,3.74,0,0,0-.49-2.32,3.29,3.29,0,0,0,1.64.47l.74-8.76a5.09,5.09,0,0,0-1.34.58,4.73,4.73,0,0,0,.71-2.18,4.49,4.49,0,0,0-.15-1.67,5.57,5.57,0,0,0,1,.18l.79-9.36a4.7,4.7,0,0,1-.49.16,7.83,7.83,0,0,0,.4-1.55,4.53,4.53,0,0,0-.09-1.18,1.83,1.83,0,0,0,.41,0l.81-9.84-.12,0a4.42,4.42,0,0,0,.22-1.16,4.64,4.64,0,0,0,0-.64h0l2.49-29.73-5.1.64h-.08l-11.77,1.48h-.06L977,364.63h-.1L966.2,366l-3.12,37.18a4.47,4.47,0,0,1,0,.47H963l-.81,9.72c.12-.06.26-.07.38-.13a6.87,6.87,0,0,0-.3,1.36,4.72,4.72,0,0,0,.21,1.86c-.15,0-.36-.06-.54-.1l-.74,8.68a11.42,11.42,0,0,0,1-.54,5,5,0,0,0-.72,2.22,4,4,0,0,0,.54,2.48,2.78,2.78,0,0,0-1.17-.42l-.67,8.16A5.46,5.46,0,0,0,963.6,432.49Zm35.72-58.73c.1,0,.21,0,.28,0s.18-.07.26-.08v0a.88.88,0,0,0,0,.33h-.31c-.08,0-.24.07-.34.08a1.13,1.13,0,0,0,.08-.34Zm-1.25,11.89a2.35,2.35,0,0,0,.53,0,5,5,0,0,0,.6-.14,1.82,1.82,0,0,0-.08.36,3.78,3.78,0,0,0,0,.83c-.23,0-.42,0-.64,0s-.4.11-.62.14a7.71,7.71,0,0,0,.2-.86C998.11,385.87,998,385.8,998.07,385.65Zm-1.51,11.63a3.82,3.82,0,0,0,1.07,0,4.43,4.43,0,0,0,1.11-.3c0,.33-.12.63-.14.94a4.81,4.81,0,0,0,0,1.21,3.44,3.44,0,0,0-1.16,0,4.27,4.27,0,0,0-1.19.31,6.64,6.64,0,0,0,.25-1.24A7.11,7.11,0,0,0,996.56,397.28Zm-1.4,11.84a4.27,4.27,0,0,0,1.47.07,5,5,0,0,0,1.46-.44,8.65,8.65,0,0,0-.3,1.36A4.91,4.91,0,0,0,998,412a4,4,0,0,0-1.64-.17,5.34,5.34,0,0,0-1.67.58,6.91,6.91,0,0,0,.55-1.95A3.53,3.53,0,0,0,995.16,409.12Zm-1.54,11.42a3.85,3.85,0,0,0,2,.31,5.26,5.26,0,0,0,2.11-.84,6,6,0,0,0-.71,2.23,4.38,4.38,0,0,0,.54,2.48,3.25,3.25,0,0,0-2.23-.46,4.81,4.81,0,0,0-2.38,1,6.17,6.17,0,0,0,1-2.68A3.72,3.72,0,0,0,993.62,420.54Zm.54-52.12h0c0,.12,0,.2,0,.33s-.05,0-.05,0,0,0,0,0,0-.21,0-.29Zm-1.26,11.92c.08,0,.2,0,.3,0s.2-.07.32-.09-.06.2-.08.32a3.85,3.85,0,0,1,0,.58c-.08,0-.17,0-.29,0a3.25,3.25,0,0,0-.37.11,2.33,2.33,0,0,0,.13-.6C992.92,380.53,992.87,380.45,992.9,380.34Zm-1.54,11.89a5.05,5.05,0,0,0,.86,0A5.43,5.43,0,0,0,993,392a2.5,2.5,0,0,0-.13.65,5.11,5.11,0,0,0,.06,1.13,5.34,5.34,0,0,0-.89,0,6.21,6.21,0,0,0-.92.2,7.63,7.63,0,0,0,.25-1.16A3.28,3.28,0,0,0,991.36,392.23ZM990,403.86a5.46,5.46,0,0,0,1.21,0,6.45,6.45,0,0,0,1.17-.29,4.41,4.41,0,0,0-.15,2.71,4.19,4.19,0,0,0-1.23,0,5.32,5.32,0,0,0-1.3.35,5.83,5.83,0,0,0,.36-1.55A4.16,4.16,0,0,0,990,403.86Zm-1.62,11.74a4.41,4.41,0,0,0,1.82.15,6.28,6.28,0,0,0,1.88-.61,5.36,5.36,0,0,0-.52,1.75,3.71,3.71,0,0,0,.4,2,4.12,4.12,0,0,0-2-.28,5.54,5.54,0,0,0-2.13.81,4.75,4.75,0,0,0,.56-3.86Zm-.95-40.34c.08,0,.19,0,.33,0s.15-.06.26-.08v.05a1.7,1.7,0,0,0,0,.32,2.76,2.76,0,0,1-.29,0c-.14,0-.26.07-.34.08a1.66,1.66,0,0,0,0-.33Zm-1.27,11.89a2.36,2.36,0,0,0,.59,0,3.47,3.47,0,0,0,.54-.13,3.09,3.09,0,0,1,0,.35,4,4,0,0,0,0,.84c-.23,0-.41,0-.58,0s-.39.11-.64.14c.05-.27.07-.56.1-.86A3.09,3.09,0,0,0,986.2,387.15Zm-1.49,11.63a3.36,3.36,0,0,0,1.11,0,4.21,4.21,0,0,0,1.09-.3,7.16,7.16,0,0,0-.18.95,3.86,3.86,0,0,0,.09,1.2,4.12,4.12,0,0,0-1.16,0,4.46,4.46,0,0,0-1.19.32c.07-.38.19-.81.23-1.24S984.71,399.11,984.71,398.78Zm-1.36,11.84a4.14,4.14,0,0,0,1.46.06,4.77,4.77,0,0,0,1.47-.44,7.2,7.2,0,0,0-.3,1.36,4.36,4.36,0,0,0,.25,1.86,4,4,0,0,0-1.64-.17,5.71,5.71,0,0,0-1.73.59,5.24,5.24,0,0,0,.55-1.95A5.6,5.6,0,0,0,983.35,410.62ZM981.78,422a3.77,3.77,0,0,0,2.07.32,5.35,5.35,0,0,0,2.11-.84,5,5,0,0,0-.73,2.22,4.13,4.13,0,0,0,.54,2.48,3.26,3.26,0,0,0-2.21-.46,4.8,4.8,0,0,0-2.42,1.05,5.7,5.7,0,0,0,1-2.68A4.25,4.25,0,0,0,981.78,422Zm.55-52.12h0c0,.12,0,.2,0,.32s-.06,0-.1,0l0,0a1.57,1.57,0,0,1,.06-.3Zm-1.28,11.93c.12,0,.18,0,.29,0s.24-.08.33-.09,0,.19,0,.32,0,.35,0,.57c-.15,0-.22,0-.36,0s-.23.09-.31.1c0-.23.08-.42.09-.59S981,382,981.05,381.84Zm-1.5,11.88a4.3,4.3,0,0,0,.8,0,6.24,6.24,0,0,0,.88-.19,2.06,2.06,0,0,0-.16.65,10,10,0,0,0,0,1.13,5.59,5.59,0,0,0-.9,0,8.48,8.48,0,0,0-.92.2,4.45,4.45,0,0,0,.28-1.17C979.58,394.13,979.52,394,979.55,393.72Zm-1.34,11.63a5.08,5.08,0,0,0,1.17,0,6.12,6.12,0,0,0,1.21-.3,3.72,3.72,0,0,0-.27,1.23,4.55,4.55,0,0,0,.1,1.49,4.38,4.38,0,0,0-1.26,0,5.29,5.29,0,0,0-1.28.35,4.82,4.82,0,0,0,.42-1.56A5.65,5.65,0,0,0,978.21,405.35Zm-1.7,11.76a4.32,4.32,0,0,0,1.87.14,6.13,6.13,0,0,0,1.87-.61,6,6,0,0,0-.46,1.74,4.16,4.16,0,0,0,.36,2.05,3.83,3.83,0,0,0-2-.28A5.79,5.79,0,0,0,976,421a4.76,4.76,0,0,0,.79-2.2A4.18,4.18,0,0,0,976.51,417.11Zm-.85-40.36c.08,0,.17,0,.27,0a3.09,3.09,0,0,1,.3-.08v0a1.66,1.66,0,0,1,0,.33c-.12,0-.15,0-.28,0s-.25.07-.35.08a1.51,1.51,0,0,0,.11-.34Zm-1.31,11.9a3.55,3.55,0,0,0,.57,0,3,3,0,0,0,.56-.13c0,.14-.07.23-.09.36a3.71,3.71,0,0,0,.08.83c-.23,0-.41,0-.64,0s-.39.11-.62.14a8.11,8.11,0,0,0,.14-.86C974.38,388.87,974.33,388.8,974.35,388.65Zm-1.51,11.63a3.71,3.71,0,0,0,1.11,0,5.23,5.23,0,0,0,1.14-.3,5.49,5.49,0,0,0-.17.94,4.4,4.4,0,0,0,0,1.21,3.15,3.15,0,0,0-1.15,0,4.27,4.27,0,0,0-1.19.31,6.91,6.91,0,0,0,.26-1.25A3.55,3.55,0,0,0,972.84,400.28Zm-1.3,11.83a3.6,3.6,0,0,0,1.41.07,5.2,5.2,0,0,0,1.5-.44,6.84,6.84,0,0,0-.28,1.36,5.12,5.12,0,0,0,.2,1.86,4.27,4.27,0,0,0-1.64-.17,5.37,5.37,0,0,0-1.7.59,5.94,5.94,0,0,0,.56-2A6.25,6.25,0,0,0,971.54,412.11ZM970,423.53a3.85,3.85,0,0,0,2,.32,5.55,5.55,0,0,0,2.13-.85,5.11,5.11,0,0,0-.73,2.23,4.36,4.36,0,0,0,.53,2.48,3.2,3.2,0,0,0-2.22-.46,4.87,4.87,0,0,0-2.42,1.05,5.66,5.66,0,0,0,1-2.68A4.25,4.25,0,0,0,970,423.53Zm.52-52.12h0c0,.12,0,.2,0,.32s-.07,0-.07,0,0,0,0,0a2.19,2.19,0,0,1,0-.29Zm-1.25,11.93c.1,0,.17,0,.29,0s.22-.07.34-.08a2.49,2.49,0,0,0-.08.32c0,.16,0,.34,0,.57a3.36,3.36,0,0,1-.36,0c-.12,0-.21.09-.35.11a2.36,2.36,0,0,0,.13-.59C969.24,383.52,969.19,383.45,969.22,383.34Zm-1.5,11.88a5.44,5.44,0,0,0,.8,0,6.72,6.72,0,0,0,.84-.19,1.91,1.91,0,0,0-.12.65,5.18,5.18,0,0,0,0,1.13,5.48,5.48,0,0,0-.9,0,6.55,6.55,0,0,0-.9.21,4.86,4.86,0,0,0,.24-1.17C967.74,395.62,967.69,395.45,967.72,395.22Zm-1.34,11.63a5.08,5.08,0,0,0,1.17,0,6.39,6.39,0,0,0,1.18-.3,5.64,5.64,0,0,0-.26,1.22,4.77,4.77,0,0,0,.12,1.49,5.18,5.18,0,0,0-1.25,0,5.42,5.42,0,0,0-1.27.35,6.61,6.61,0,0,0,.36-1.55A5.06,5.06,0,0,0,966.38,406.85ZM964.7,418.6a5,5,0,0,0,3.74-.47,4.47,4.47,0,0,0-.47,1.75,3.69,3.69,0,0,0,.36,2.05,4,4,0,0,0-2-.28,6,6,0,0,0-2.16.8,4.54,4.54,0,0,0,.71-2.18A4.15,4.15,0,0,0,964.7,418.6ZM1000,430l-.66,7.85a3.08,3.08,0,0,1-2.78-3.53A5.19,5.19,0,0,1,1000,430Zm-15.3,5.82a5.14,5.14,0,0,1,4.27-4.48,3.07,3.07,0,0,1,3.54,3.49,5.11,5.11,0,0,1-4.22,4.48A3.09,3.09,0,0,1,984.66,435.82Zm9.66.81a3.09,3.09,0,0,1,3.55,3.54,5.12,5.12,0,0,1-4.22,4.48,3.07,3.07,0,0,1-3.54-3.5A5.14,5.14,0,0,1,994.32,436.63Zm4.58,5.88-.59,7.13a2.81,2.81,0,0,1-2.56-3.2A4.77,4.77,0,0,1,998.9,442.51Zm-26.06-5.2a5.11,5.11,0,0,1,4.22-4.47,3.07,3.07,0,0,1,3.58,3.49,5.08,5.08,0,0,1-4.26,4.48A3.07,3.07,0,0,1,972.84,437.31Zm9.67.82a3.09,3.09,0,0,1,3.53,3.54,5.12,5.12,0,0,1-4.2,4.47,3.08,3.08,0,0,1-3.58-3.49A5.15,5.15,0,0,1,982.51,438.13Zm1.41,9.8a4.72,4.72,0,0,1,4-4.17,2.87,2.87,0,0,1,3.33,3.25,4.79,4.79,0,0,1-4,4.2A2.88,2.88,0,0,1,983.92,447.93Zm9.34,1.41a2.71,2.71,0,0,1,3.15,3,4.55,4.55,0,0,1-3.73,4,2.68,2.68,0,0,1-3.08-3.11A4.36,4.36,0,0,1,993.26,449.34Zm4.6,5.85-.52,6.12a2.45,2.45,0,0,1-2.1-2.77A4.07,4.07,0,0,1,997.86,455.19ZM964.55,442.3a3.09,3.09,0,0,1-3.58-3.49,5.15,5.15,0,0,1,4.26-4.48,3.07,3.07,0,0,1,3.55,3.5A5.08,5.08,0,0,1,964.55,442.3Zm6.1-2.67a3.09,3.09,0,0,1,3.55,3.53,5.11,5.11,0,0,1-4.22,4.48,3.1,3.1,0,0,1-3.59-3.49A5.18,5.18,0,0,1,970.65,439.63Zm8.72,8.88a4.76,4.76,0,0,1-4,4.2,2.89,2.89,0,0,1-3.35-3.27,4.74,4.74,0,0,1,4-4.18A2.86,2.86,0,0,1,979.37,448.51Zm2.08,2.33a2.63,2.63,0,0,1,3,3,4.43,4.43,0,0,1-3.61,3.95,2.69,2.69,0,0,1-3.1-3.1A4.38,4.38,0,0,1,981.45,450.84Zm1.94,9.19a4.11,4.11,0,0,1,3.43-3.59,2.45,2.45,0,0,1,2.84,2.8,4.09,4.09,0,0,1-3.38,3.62A2.48,2.48,0,0,1,983.39,460Zm11.71,4.56a4.15,4.15,0,0,1-3.42,3.6,2.48,2.48,0,0,1-2.85-2.8,4.08,4.08,0,0,1,3.39-3.63A2.48,2.48,0,0,1,995.1,464.59Zm1.71,3-.48,5.64a2.21,2.21,0,0,1-1.86-2.56A3.93,3.93,0,0,1,996.81,467.55Zm-37.55-18.72.63-7.66a3.08,3.08,0,0,1,2.48,3.49A5.21,5.21,0,0,1,959.26,448.83Zm4.31,5.37a2.87,2.87,0,0,1-3.33-3.27,4.74,4.74,0,0,1,4-4.18,2.88,2.88,0,0,1,3.35,3.26A4.79,4.79,0,0,1,963.57,454.2Zm6-1.86a2.67,2.67,0,0,1,3.09,3,4.47,4.47,0,0,1-3.67,4,2.71,2.71,0,0,1-3.08-3.11A4.38,4.38,0,0,1,969.58,452.34Zm2,9.19a4.11,4.11,0,0,1,3.39-3.59,2.45,2.45,0,0,1,2.88,2.8,4.09,4.09,0,0,1-3.42,3.62A2.48,2.48,0,0,1,971.56,461.53Zm5.41,5.36a4.09,4.09,0,0,1,3.44-3.64,2.48,2.48,0,0,1,2.85,2.84,4.16,4.16,0,0,1-3.39,3.6A2.48,2.48,0,0,1,977,466.89Zm11.43,4.51a3.75,3.75,0,0,1-3.1,3.35,2.31,2.31,0,0,1-2.7-2.62,3.84,3.84,0,0,1,3.18-3.32A2.27,2.27,0,0,1,988.4,471.4Zm5.21,5.4a3.59,3.59,0,0,1-2.9,3.06,2.09,2.09,0,0,1-2.44-2.38,3.5,3.5,0,0,1,2.9-3.1A2.15,2.15,0,0,1,993.61,476.8Zm2.17,3.2-.44,5.15a2.11,2.11,0,0,1-1.68-2.38A3.44,3.44,0,0,1,995.78,480Zm-37.5-19.58.55-6.52a2.7,2.7,0,0,1,2,3A4.61,4.61,0,0,1,958.28,460.42ZM959.7,463a4.12,4.12,0,0,1,3.42-3.6,2.46,2.46,0,0,1,2.85,2.81,4.09,4.09,0,0,1-3.39,3.61A2.48,2.48,0,0,1,959.7,463Zm5.42,5.35a4.14,4.14,0,0,1,3.42-3.63,2.47,2.47,0,0,1,2.85,2.84,4.14,4.14,0,0,1-3.39,3.6A2.5,2.5,0,0,1,965.12,468.38Zm11.48,4.51a3.8,3.8,0,0,1-3.17,3.36,2.31,2.31,0,0,1-2.66-2.62,3.83,3.83,0,0,1,3.14-3.32A2.3,2.3,0,0,1,976.6,472.89Zm5.18,5.41a3.55,3.55,0,0,1-2.88,3.05,2.12,2.12,0,0,1-2.48-2.37,3.54,3.54,0,0,1,2.94-3.11A2.14,2.14,0,0,1,981.78,478.3Zm5.39,5.3a3.48,3.48,0,0,1-2.89,3.09,2.1,2.1,0,0,1-2.43-2.42,3.49,3.49,0,0,1,2.9-3.08A2.11,2.11,0,0,1,987.17,483.6Zm5.16,5.38a3.21,3.21,0,0,1-2.62,2.8,1.94,1.94,0,0,1-2.23-2.19,3.26,3.26,0,0,1,2.64-2.8A1.94,1.94,0,0,1,992.33,489Zm2.38,3.68-.35,4.12a1.76,1.76,0,0,1-1.18-1.91A2.92,2.92,0,0,1,994.71,492.66ZM957.3,472.29l.49-6a2.53,2.53,0,0,1,1.77,2.78A4.16,4.16,0,0,1,957.3,472.29Zm7.43,2.1a3.77,3.77,0,0,1-3.13,3.36,2.3,2.3,0,0,1-2.68-2.62,3.81,3.81,0,0,1,3.16-3.32A2.28,2.28,0,0,1,964.73,474.39Zm5.18,5.41a3.51,3.51,0,0,1-2.88,3.05,2.12,2.12,0,0,1-2.44-2.38,3.57,3.57,0,0,1,2.9-3.1A2.13,2.13,0,0,1,969.91,479.8Zm5.42,5.29a3.51,3.51,0,0,1-2.92,3.1,2.08,2.08,0,0,1-2.4-2.43,3.48,3.48,0,0,1,2.88-3.07A2.11,2.11,0,0,1,975.33,485.09Zm5.16,5.39a3.19,3.19,0,0,1-2.59,2.79,1.93,1.93,0,0,1-2.25-2.18,3.21,3.21,0,0,1,2.67-2.8A1.92,1.92,0,0,1,980.49,490.48Zm5.11,5.35a2.8,2.8,0,0,1-2.29,2.49,1.7,1.7,0,0,1-2-1.95,2.79,2.79,0,0,1,2.34-2.46A1.69,1.69,0,0,1,985.6,495.83Zm5.19,5.38a2.43,2.43,0,0,1-2.06,2.19,1.51,1.51,0,0,1-1.73-1.71,2.46,2.46,0,0,1,2.06-2.19A1.47,1.47,0,0,1,990.79,501.21Zm2.88,3.87-.31,3.57a1.5,1.5,0,0,1-1-1.64A2.63,2.63,0,0,1,993.67,505.08Zm-37.35-21.16.4-4.94a2.26,2.26,0,0,1,1.38,2.31A3.53,3.53,0,0,1,956.32,483.92Zm7.18,2.67a3.52,3.52,0,0,1-2.92,3.1,2.11,2.11,0,0,1-2.44-2.43,3.54,3.54,0,0,1,2.92-3.08A2.11,2.11,0,0,1,963.5,486.59Zm5.16,5.38a3.21,3.21,0,0,1-2.63,2.8,2,2,0,0,1-2.25-2.18,3.27,3.27,0,0,1,2.67-2.8A1.93,1.93,0,0,1,968.66,492Zm5.13,5.35a2.82,2.82,0,0,1-2.36,2.5,1.71,1.71,0,0,1-2-1.95,2.83,2.83,0,0,1,2.34-2.46A1.7,1.7,0,0,1,973.79,497.32ZM979,502.7a2.49,2.49,0,0,1-2.05,2.2,1.51,1.51,0,0,1-1.77-1.71,2.44,2.44,0,0,1,2.1-2.19A1.48,1.48,0,0,1,979,502.7Zm5.42,5.32a2.53,2.53,0,0,1-2.07,2.19,1.51,1.51,0,0,1-1.74-1.71,2.46,2.46,0,0,1,2-2.17A1.53,1.53,0,0,1,984.39,508Zm5.09,5.35a2.12,2.12,0,0,1-1.76,1.91,1.31,1.31,0,0,1-1.51-1.49,2.17,2.17,0,0,1,1.81-1.87A1.26,1.26,0,0,1,989.48,513.37Zm3.11,4.48-.19,2.37a1.17,1.17,0,0,1-.53-1.09A1.86,1.86,0,0,1,992.59,517.85Zm-37.28-22.06.37-4.29a1.87,1.87,0,0,1,1.11,2A3.14,3.14,0,0,1,955.31,495.79Zm6.63,3a2.84,2.84,0,0,1-2.34,2.49,1.68,1.68,0,0,1-2-1.95,2.77,2.77,0,0,1,2.33-2.45A1.7,1.7,0,0,1,961.94,498.82Zm5.16,5.38a2.45,2.45,0,0,1-2,2.2,1.52,1.52,0,0,1-1.74-1.72,2.44,2.44,0,0,1,2.07-2.18A1.46,1.46,0,0,1,967.1,504.2Zm5.42,5.32a2.52,2.52,0,0,1-2.07,2.19,1.51,1.51,0,0,1-1.73-1.71,2.46,2.46,0,0,1,2-2.17A1.53,1.53,0,0,1,972.52,509.52Zm5.15,5.35a2.11,2.11,0,0,1-1.75,1.9,1.31,1.31,0,0,1-1.54-1.49,2.16,2.16,0,0,1,1.83-1.87A1.27,1.27,0,0,1,977.67,514.87Zm5.18,5.4a1.81,1.81,0,0,1-1.52,1.59,1.11,1.11,0,0,1-1.33-1.23,1.88,1.88,0,0,1,1.58-1.66A1.12,1.12,0,0,1,982.85,520.27Zm5.44,5.29a1.89,1.89,0,0,1-1.57,1.64,1.13,1.13,0,0,1-1.32-1.27,1.93,1.93,0,0,1,1.57-1.64A1.15,1.15,0,0,1,988.29,525.56Zm3.25,4.77-.13,1.74a1,1,0,0,1-.31-.82A1.41,1.41,0,0,1,991.54,530.33Zm-37.19-23,.25-3.07a1.47,1.47,0,0,1,.69,1.43A2.53,2.53,0,0,1,954.35,507.34Zm6.34,3.67a2.47,2.47,0,0,1-2.07,2.19,1.52,1.52,0,0,1-1.76-1.7,2.51,2.51,0,0,1,2.08-2.17A1.51,1.51,0,0,1,960.69,511Zm5.15,5.35a2.14,2.14,0,0,1-1.79,1.91,1.34,1.34,0,0,1-1.55-1.49,2.23,2.23,0,0,1,1.84-1.87A1.28,1.28,0,0,1,965.84,516.36Zm5.19,5.41a1.84,1.84,0,0,1-1.57,1.59,1.08,1.08,0,0,1-1.26-1.24,1.82,1.82,0,0,1,1.51-1.65A1.14,1.14,0,0,1,971,521.77Zm5.41,5.29a1.84,1.84,0,0,1-1.52,1.63,1.11,1.11,0,0,1-1.33-1.27,1.88,1.88,0,0,1,1.58-1.64A1.12,1.12,0,0,1,976.44,527.06Zm5.12,5.39a1.46,1.46,0,0,1-1.21,1.3.91.91,0,0,1-1.1-1,1.52,1.52,0,0,1,1.29-1.35A.9.9,0,0,1,981.56,532.45Zm5.15,5.35a1.13,1.13,0,0,1-1,1,.71.71,0,0,1-.84-.79,1.24,1.24,0,0,1,1-1A.71.71,0,0,1,986.71,537.8Zm-33.35-18.61.2-2.46a1.3,1.3,0,0,1,.44,1.13A2.07,2.07,0,0,1,953.36,519.19Zm5.82,4.07a1.85,1.85,0,0,1-1.55,1.59,1.06,1.06,0,0,1-1.25-1.23,1.79,1.79,0,0,1,1.5-1.65A1.13,1.13,0,0,1,959.18,523.26Zm5.39,5.3a1.84,1.84,0,0,1-1.52,1.63,1.12,1.12,0,0,1-1.31-1.27,1.91,1.91,0,0,1,1.56-1.64A1.12,1.12,0,0,1,964.57,528.56Zm5.16,5.39a1.51,1.51,0,0,1-1.25,1.31.91.91,0,0,1-1.05-1,1.52,1.52,0,0,1,1.24-1.35A.93.93,0,0,1,969.73,534Zm5.17,5.34a1.13,1.13,0,0,1-1,1,.71.71,0,0,1-.87-.79,1.2,1.2,0,0,1,1-1A.69.69,0,0,1,974.9,539.29Zm5.14,5.37a.88.88,0,0,1-.68.77.54.54,0,0,1-.63-.6.91.91,0,0,1,.74-.76A.53.53,0,0,1,980,544.66ZM985.5,550a.89.89,0,0,1-.75.75.52.52,0,0,1-.62-.57.89.89,0,0,1,.74-.76A.54.54,0,0,1,985.5,550Zm-32.74-19.94a1.74,1.74,0,0,1-.4.92l.14-1.71A1.14,1.14,0,0,1,952.76,530.05Zm5.1,5.4a1.42,1.42,0,0,1-1.21,1.3.93.93,0,0,1-1.09-1,1.58,1.58,0,0,1,1.28-1.36A.9.9,0,0,1,957.86,535.45Zm5.2,5.34a1.17,1.17,0,0,1-1,1,.7.7,0,0,1-.83-.8,1.19,1.19,0,0,1,1-1A.72.72,0,0,1,963.06,540.79Zm5.15,5.36a.87.87,0,0,1-.72.78.54.54,0,0,1-.57-.61.93.93,0,0,1,.68-.75A.52.52,0,0,1,968.21,546.15Zm5.42,5.34a.84.84,0,0,1-.68.74.51.51,0,0,1-.63-.57.84.84,0,0,1,.75-.75A.49.49,0,0,1,973.63,551.49Zm5.18,5.36a.6.6,0,0,1-.45.51.35.35,0,0,1-.4-.4.56.56,0,0,1,.47-.49A.35.35,0,0,1,978.81,556.85Zm5,5.21c.08,0,.19,0,.16.14a.24.24,0,0,1-.18.21.14.14,0,0,1-.14-.17A.19.19,0,0,1,983.8,562.06Zm-27.44-14.41a.83.83,0,0,1-.7.77c-.41.05-.6-.21-.57-.61a.81.81,0,0,1,.69-.74A.5.5,0,0,1,956.36,547.65ZM961.8,553a.85.85,0,0,1-.72.74.52.52,0,0,1-.63-.57.89.89,0,0,1,.75-.75A.51.51,0,0,1,961.8,553Zm5.18,5.36a.6.6,0,0,1-.49.51.34.34,0,0,1-.36-.4.54.54,0,0,1,.44-.49A.35.35,0,0,1,967,558.35Zm5,5.2a.11.11,0,0,1,.1.15c0,.1-.07.19-.12.2a.18.18,0,0,1-.2-.16A.25.25,0,0,1,972,563.55Zm-16.86-3.7a.6.6,0,0,1-.46.51.38.38,0,0,1-.41-.4.62.62,0,0,1,.48-.5A.35.35,0,0,1,955.13,559.85Zm5,5.2c.08,0,.15,0,.12.15s0,.19-.13.2a.13.13,0,0,1-.15-.16C960,565.13,960,565.06,960.12,565.05Z" transform="translate(-833.91 -345.69)"/><polygon class="cls-2" points="171 25.43 171.85 15.26 132.29 20.26 115.26 223.35 125.19 222.1 141.37 29.18 171 25.43"/><path class="cls-4" d="M992.47,575.11c.15,0,.23,0,.36,0s.25-.08.33-.09a4.62,4.62,0,0,0-.13.6,1.21,1.21,0,0,1,0,.33c-.1,0-.16,0-.27,0s-.23.07-.38.09a.67.67,0,0,0,.11-.35C992.5,575.48,992.46,575.32,992.47,575.11Zm5.45,5.89a.31.31,0,0,0,0,.1.49.49,0,0,1,.25-.07.57.57,0,0,1,.29,0v0c0-.15.06-.27.07-.38a1.82,1.82,0,0,1-.33.11,1.78,1.78,0,0,1-.3,0C997.9,580.8,997.93,580.91,997.92,581Zm.73-13a4,4,0,0,1,0,.86c0,.08-.06.21-.08.33a3.15,3.15,0,0,1,.58-.11,3.32,3.32,0,0,1,.53,0c0-.12,0-.24,0-.33a4.15,4.15,0,0,1,.13-.88,2.65,2.65,0,0,1-.62.14A3.11,3.11,0,0,1,998.65,568.05ZM986.06,582.5a.22.22,0,0,0,0,.1.8.8,0,0,1,.28-.08.94.94,0,0,1,.33,0v0a2.73,2.73,0,0,0,0-.37,2.12,2.12,0,0,1-.33.11c-.08,0-.17,0-.31,0S986.07,582.41,986.06,582.5Zm13.12-25.69a4.36,4.36,0,0,1-.14.83v.09a5.23,5.23,0,0,1,1.12-.27,6,6,0,0,1,1.13,0,3,3,0,0,1-.06-.89,6.89,6.89,0,0,1,.28-1.23,7.08,7.08,0,0,1-1.2.32,5.61,5.61,0,0,1-1.09,0l0,.54A4.65,4.65,0,0,1,999.18,556.81Zm-7.46,31h0c0-.1.06-.24.06-.32h-.12A.79.79,0,0,1,991.72,587.84Zm19.85-20.24c0-.12,0-.24,0-.32a3.94,3.94,0,0,1,.15-.88,4.27,4.27,0,0,1-.64.14,2.74,2.74,0,0,1-.57,0c0,.28,0,.53,0,.87a1.53,1.53,0,0,1,0,.33,2.39,2.39,0,0,1,.57-.11A2.94,2.94,0,0,1,1011.57,567.6ZM1013.1,556a3.89,3.89,0,0,1,0-.9,4.33,4.33,0,0,1,.29-1.23,7.16,7.16,0,0,1-1.23.32,5.53,5.53,0,0,1-1.15,0,4.6,4.6,0,0,1,.07,1.19,8.76,8.76,0,0,1-.15.92A4.48,4.48,0,0,1,1012,556,4.7,4.7,0,0,1,1013.1,556Zm-12-10.4a4.43,4.43,0,0,1,1.47.1,4.26,4.26,0,0,1-.1-1.28,5.08,5.08,0,0,1,.57-2,5.61,5.61,0,0,1-1.72.57,3.54,3.54,0,0,1-1.09,0l-.25,3A4.37,4.37,0,0,1,1001.15,545.55Zm8.87,33.67c-.1,0-.16,0-.29,0s0,.23,0,.31a.36.36,0,0,0,0,.11.41.41,0,0,1,.25-.08.91.91,0,0,1,.33,0s-.07,0-.07,0,.09-.28.1-.38A1.91,1.91,0,0,1,1010,579.22Zm1.81-46a5,5,0,0,1,2.12-.82,3.6,3.6,0,0,1,2,.29,3.81,3.81,0,0,1-.36-2.07,5.19,5.19,0,0,1,1-2.67,5.1,5.1,0,0,1-2.41,1,3.35,3.35,0,0,1-2.24-.46,3.94,3.94,0,0,1,.62,2.47A5.4,5.4,0,0,1,1011.83,533.25Zm3.63,51.59a2.85,2.85,0,0,1,0-.31h-.06c0,.08,0,.21,0,.31Zm-1.11-42a5.39,5.39,0,0,1,.57-2,5.35,5.35,0,0,1-1.72.56,4,4,0,0,1-1.64-.14,4,4,0,0,1,.24,1.88,5.82,5.82,0,0,1-.33,1.34,6.29,6.29,0,0,1,1.51-.48,4.65,4.65,0,0,1,1.47.1A5,5,0,0,1,1014.35,542.87Zm-10.82,43.48h.1c0-.1,0-.23,0-.32h-.1C1003.54,586.12,1003.54,586.25,1003.53,586.35Zm-1.41-52.43a3.8,3.8,0,0,1,2,.3,3.67,3.67,0,0,1-.36-2.08,5.12,5.12,0,0,1,1-2.66,5,5,0,0,1-2.38,1,3.59,3.59,0,0,1-1.09,0l-.31,3.75A4.35,4.35,0,0,1,1002.12,533.92Zm7.09,3.54a6,6,0,0,1,.73-2.19,4.64,4.64,0,0,1-2.12.81,4,4,0,0,1-2.05-.28,3.9,3.9,0,0,1,.36,2.05,6.65,6.65,0,0,1-.45,1.78,5.37,5.37,0,0,1,1.89-.65,3.93,3.93,0,0,1,1.81.19A4.75,4.75,0,0,1,1009.21,537.46Zm-4.87,36.15c0,.21,0,.37,0,.57a.63.63,0,0,1-.09.35c.1,0,.23-.07.33-.08a2.93,2.93,0,0,1,.3,0,2.14,2.14,0,0,0,0-.34,2.64,2.64,0,0,1,.11-.59c-.14,0-.24.08-.37.1S1004.45,573.6,1004.34,573.61Zm2.1-11.09a3,3,0,0,1-.05-.63,4.88,4.88,0,0,1,.25-1.14c-.34.08-.62.16-.92.2a6.34,6.34,0,0,1-.86,0,5.88,5.88,0,0,1,0,1.11c0,.22-.07.45-.08.64a3.84,3.84,0,0,1,.81-.2A4,4,0,0,1,1006.44,562.52Zm1.25-12.83a4.29,4.29,0,0,1,.4-1.53,5.51,5.51,0,0,1-1.33.33,4.82,4.82,0,0,1-1.26,0,4.66,4.66,0,0,1,.12,1.46,7.51,7.51,0,0,1-.25,1.27,5,5,0,0,1,1.19-.32,4.06,4.06,0,0,1,1.16,0A3.86,3.86,0,0,1,1007.69,549.69ZM1018.26,561a3.47,3.47,0,0,1,0-.64,3.65,3.65,0,0,1,.22-1.14,6.84,6.84,0,0,1-.9.2,5.66,5.66,0,0,1-.9,0,5.26,5.26,0,0,1,0,1.12,3.19,3.19,0,0,1-.09.64,3.78,3.78,0,0,1,.88-.21A3.06,3.06,0,0,1,1018.26,561Zm-21.1,32.1v0h0v0Zm-11.81,1.49v0h-.05v0Zm35-57.13.26-3.13a5.35,5.35,0,0,1-.9.22,3.59,3.59,0,0,1-2.08-.27,3.79,3.79,0,0,1,.36,2.05,5.26,5.26,0,0,1-.46,1.78,5.53,5.53,0,0,1,1.93-.66A3.8,3.8,0,0,1,1020.32,537.49Zm-1,11.9.22-2.63a5,5,0,0,1-.92.23,4.64,4.64,0,0,1-1.29,0,5,5,0,0,1,.14,1.47c0,.45-.16.83-.23,1.26a4.61,4.61,0,0,1,1.2-.32A6.4,6.4,0,0,1,1019.32,549.39ZM1009,591.63v0h0v0ZM979.94,589h0c0,.08,0,.21,0,.31h0c0-.1.06-.23.07-.31Zm.72-11.84c0,.11-.06.21-.08.34s.24-.07.34-.08.14,0,.29,0a1.76,1.76,0,0,0,0-.33,2.26,2.26,0,0,1,.16-.59,3.54,3.54,0,0,0-.38.09c-.1,0-.23,0-.31,0C980.65,576.82,980.67,577,980.66,577.18Zm-11.85,1.5c0,.1-.08.21-.1.34.14,0,.24-.07.38-.09s.17,0,.25,0a2.12,2.12,0,0,0,0-.33,2.14,2.14,0,0,1,.12-.59c-.1,0-.24.07-.34.08s-.25,0-.35,0C968.78,578.32,968.83,578.47,968.81,578.68Zm5.44,5.31a.28.28,0,0,0,0,.11.64.64,0,0,1,.31-.08.67.67,0,0,1,.28,0v0a3.25,3.25,0,0,1,.07-.38,3.07,3.07,0,0,1-.31.11.9.9,0,0,1-.31,0C974.23,583.79,974.26,583.91,974.25,584Zm41.92-11.87c0,.21,0,.37,0,.57a1.42,1.42,0,0,1,0,.34c.09,0,.2-.07.34-.08a2.08,2.08,0,0,0,.25,0c0-.13,0-.23,0-.33s.07-.38.09-.59c-.08,0-.23.07-.32.09S1016.29,572.1,1016.17,572.12Zm11.88-151.25a.92.92,0,0,0,1.09,1,1.41,1.41,0,0,0,.91-.59l-.86,10.38a1.21,1.21,0,0,0-.86-.26,1.86,1.86,0,0,0-1.58,1.64,1.11,1.11,0,0,0,1.33,1.24,1.65,1.65,0,0,0,.93-.48l-.79,9.4a1.75,1.75,0,0,0-.86-.13,2.46,2.46,0,0,0-2.1,2.19A1.51,1.51,0,0,0,1027,447a2.14,2.14,0,0,0,.92-.4l-.72,8.49a1.69,1.69,0,0,0-.87-.11,2.91,2.91,0,0,0-2.37,2.49,1.71,1.71,0,0,0,2,1.95,2.33,2.33,0,0,0,.93-.34l-.64,7.64a1.81,1.81,0,0,0-.88-.12,3.53,3.53,0,0,0-2.93,3.09,2.13,2.13,0,0,0,2.48,2.41,3.72,3.72,0,0,0,.91-.3l-.58,6.82a2,2,0,0,0-.87-.06,3.81,3.81,0,0,0-3.22,3.32,2.36,2.36,0,0,0,2.72,2.64,3.1,3.1,0,0,0,.91-.34l-.54,6.35a2.65,2.65,0,0,0-.87-.1,4.14,4.14,0,0,0-3.45,3.61,2.47,2.47,0,0,0,2.9,2.83,4.47,4.47,0,0,0,.91-.28l-.46,5.57a4.75,4.75,0,0,0-.88-.1,4.85,4.85,0,0,0-4,4.22,2.91,2.91,0,0,0,3.36,3.3,6.88,6.88,0,0,0,.91-.3l-.4,4.71a3.25,3.25,0,0,0-.88,0,5.11,5.11,0,0,0-4.26,4.48,3.11,3.11,0,0,0,3.59,3.53,3.24,3.24,0,0,0,.89-.25l-.33,3.92a6.44,6.44,0,0,0-.88,0,5.43,5.43,0,0,0-2.61,1.11,5.06,5.06,0,0,0,.94-2.46,3.3,3.3,0,0,0-3.8-3.73,5.43,5.43,0,0,0-4.45,4.77,3.88,3.88,0,0,0,.48,2.28,3.74,3.74,0,0,0-2.43-.47,5.14,5.14,0,0,0-2.55,1.1,5.07,5.07,0,0,0,.9-2.46,3.28,3.28,0,0,0-3.78-3.73,4.59,4.59,0,0,0-1.12.32l.36-4.28a3.58,3.58,0,0,0,1.09,0,5.11,5.11,0,0,0,4.22-4.48,3.07,3.07,0,0,0-3.55-3.5,4.11,4.11,0,0,0-1.12.33l.43-5.1a3,3,0,0,0,1.09.08,4.4,4.4,0,0,0,3.67-3.89,2.7,2.7,0,0,0-3.1-3.08,3.72,3.72,0,0,0-1.11.37l.49-5.9a2.8,2.8,0,0,0,1.09.09,4.08,4.08,0,0,0,3.38-3.6,2.49,2.49,0,0,0-2.84-2.86,3.44,3.44,0,0,0-1.12.37l.55-6.65a2.41,2.41,0,0,0,1.08.12,3.53,3.53,0,0,0,2.91-3.13,2.09,2.09,0,0,0-2.45-2.36,3.25,3.25,0,0,0-1.12.39l.63-7.49a2,2,0,0,0,1.07.17,3.16,3.16,0,0,0,2.62-2.82,1.87,1.87,0,0,0-2.2-2.14,2.71,2.71,0,0,0-1.12.44l.18-2.19.53-6.28a1.57,1.57,0,0,0,1.08.26,2.48,2.48,0,0,0,2.06-2.17,1.5,1.5,0,0,0-1.76-1.69,2.24,2.24,0,0,0-1.13.54l.79-9.41a1.3,1.3,0,0,0,1.07.33,2.15,2.15,0,0,0,1.78-1.9,1.33,1.33,0,0,0-1.51-1.5,2,2,0,0,0-1.13.61l.84-10.09a1,1,0,0,0,1.06.47,1.88,1.88,0,0,0,1.55-1.63,1.14,1.14,0,0,0-1.3-1.28,1.74,1.74,0,0,0-1.17.78l1.49-17.78,3.41-40.65,18.08,17.8-2.68,32.18a.89.89,0,0,0-.85-.34A1.51,1.51,0,0,0,1028.05,420.87Zm2.82-24.47c0,.29.12.43.37.4a.5.5,0,0,0,.39-.5c0-.25-.1-.4-.32-.37A.49.49,0,0,0,1030.87,396.4Zm-1.31,12.2a.51.51,0,0,0,.63.57.85.85,0,0,0,.69-.74.5.5,0,0,0-.57-.58A.86.86,0,0,0,1029.56,408.6Zm-3.88-17.55c0,.09,0,.17.12.15a.22.22,0,0,0,.2-.19c0-.1-.08-.13-.18-.12S1025.69,391,1025.68,391.05Zm-5.44-5.35c0,.12.06.18.16.16a.2.2,0,0,0,.16-.2.1.1,0,0,0-.11-.11C1020.34,385.57,1020.25,385.64,1020.24,385.7Zm-1.3,12.2a.36.36,0,0,0,.42.4.52.52,0,0,0,.45-.51.31.31,0,0,0-.37-.36A.58.58,0,0,0,1018.94,397.9Zm-1.25,12.2a.53.53,0,0,0,.63.57.87.87,0,0,0,.73-.74.52.52,0,0,0-.61-.58A.88.88,0,0,0,1017.69,410.1Zm-3.86-17.55a.13.13,0,0,0,.14.15.3.3,0,0,0,.23-.2c0-.1-.1-.13-.21-.11A.17.17,0,0,0,1013.83,392.55Zm2.35,29.82a.9.9,0,0,0,1.09,1,1.52,1.52,0,0,0,1.26-1.29.91.91,0,0,0-1.06-1.05A1.48,1.48,0,0,0,1016.18,422.37Zm-3.82-17.62a.5.5,0,0,0,.57.61.85.85,0,0,0,.7-.77.49.49,0,0,0-.6-.53A.76.76,0,0,0,1012.36,404.75Zm2.55,29.78a1.11,1.11,0,0,0,1.31,1.24,1.89,1.89,0,0,0,1.56-1.6,1.12,1.12,0,0,0-1.31-1.28A1.88,1.88,0,0,0,1014.91,434.53ZM1011.06,417a.72.72,0,0,0,.81.82,1.2,1.2,0,0,0,1-1,.71.71,0,0,0-.82-.82A1.19,1.19,0,0,0,1011.06,417Zm4.11,31.5a2.45,2.45,0,0,0,2-2.19,1.47,1.47,0,0,0-1.71-1.71,2.49,2.49,0,0,0-2.07,2.19A1.51,1.51,0,0,0,1015.17,448.46Zm-1.06,12.42a2.86,2.86,0,0,0,2.35-2.5,1.71,1.71,0,0,0-2-1.94,2.83,2.83,0,0,0-2.35,2.49A1.68,1.68,0,0,0,1014.11,460.88Zm-1.05,12.68a3.47,3.47,0,0,0,2.87-3.09,2.1,2.1,0,0,0-2.41-2.41,3.55,3.55,0,0,0-2.9,3.08A2.13,2.13,0,0,0,1013.06,473.56ZM1012,486a3.8,3.8,0,0,0,3.13-3.38,2.25,2.25,0,0,0-2.63-2.58,3.74,3.74,0,0,0-3.15,3.31A2.31,2.31,0,0,0,1012,486Zm-1,12.35a4.1,4.1,0,0,0,3.39-3.63,2.48,2.48,0,0,0-2.85-2.81,4.18,4.18,0,0,0-3.42,3.6A2.49,2.49,0,0,0,1011,498.33ZM1009.91,511a4.83,4.83,0,0,0,4-4.22,2.91,2.91,0,0,0-3.34-3.3,4.84,4.84,0,0,0-4,4.22A2.9,2.9,0,0,0,1009.91,511Zm-.37,4.4a5.1,5.1,0,0,0-4.22,4.47,3.1,3.1,0,0,0,3.55,3.54,5.13,5.13,0,0,0,4.22-4.52A3.08,3.08,0,0,0,1009.54,515.44Zm6.41-6.81a5.15,5.15,0,0,0-4.22,4.48,3.09,3.09,0,0,0,3.54,3.5,5.14,5.14,0,0,0,4.27-4.49A3.09,3.09,0,0,0,1016,508.63Zm1-11.66a4.44,4.44,0,0,0-3.67,3.93,2.66,2.66,0,0,0,3.1,3A4.35,4.35,0,0,0,1020,500,2.66,2.66,0,0,0,1016.92,497Zm1-11.9a4.1,4.1,0,0,0-3.38,3.65,2.45,2.45,0,0,0,2.83,2.8,4.07,4.07,0,0,0,3.43-3.6A2.5,2.5,0,0,0,1017.93,485.07Zm1-11.65a3.44,3.44,0,0,0-2.87,3,2.11,2.11,0,0,0,2.41,2.45,3.52,3.52,0,0,0,2.91-3.12A2.09,2.09,0,0,0,1018.9,473.42Zm1-11.9a3.16,3.16,0,0,0-2.59,2.75,1.91,1.91,0,0,0,2.17,2.21,3.21,3.21,0,0,0,2.66-2.82A1.91,1.91,0,0,0,1019.9,461.52Zm1-11.63a2.48,2.48,0,0,0-2,2.18,1.47,1.47,0,0,0,1.73,1.68,2.46,2.46,0,0,0,2.07-2.16A1.5,1.5,0,0,0,1020.87,449.89Zm2.55-10.44a1.35,1.35,0,0,0-1.55-1.49,2.14,2.14,0,0,0-1.75,1.9,1.31,1.31,0,0,0,1.48,1.5A2.23,2.23,0,0,0,1023.42,439.45Zm-.53-13.41a1.87,1.87,0,0,0-1.52,1.63,1.1,1.1,0,0,0,1.27,1.28,1.86,1.86,0,0,0,1.56-1.64A1.12,1.12,0,0,0,1022.89,426Zm1.8-10.81a.72.72,0,0,0-.82-.82,1.2,1.2,0,0,0-1,1,.71.71,0,0,0,.82.82A1.19,1.19,0,0,0,1024.69,415.23Zm.79-12.13a.51.51,0,0,0-.62-.54.83.83,0,0,0-.68.7.52.52,0,0,0,.57.61A.89.89,0,0,0,1025.48,403.1Z" transform="translate(-833.91 -345.69)"/></svg>